<svg xmlns="http://www.w3.org/2000/svg" width="7421" height="7421" viewBox="0 0 7421 7421"><g transform="translate(0.5 0.5)"><path d="M1486.5-.5h4447q542.355,26.274,953,376.5,373.71,327.418,493.5,812.5a1594.323,1594.323,0,0,1,40.5,298v4447q-26.28,542.355-376.5,953-327.42,373.71-812.5,493.5a1594.323,1594.323,0,0,1-298,40.5h-4447q-542.355-26.28-953-376.5Q159.787,6716.58,40,6231.5a1594.131,1594.131,0,0,1-40.5-298v-4447Q25.774,944.145,376,533.5,703.418,159.787,1188.5,40A1594.131,1594.131,0,0,1,1486.5-.5Z" fill="#1034a6" fill-rule="evenodd"/><path d="M1768.5,2239.5h216q-.855,101.5-2,203a1399.989,1399.989,0,0,0,26.5,304,1030.249,1030.249,0,0,0,44,151,3569.563,3569.563,0,0,0,198,406q116.745,205.545,250,400a8700.25,8700.25,0,0,0,733,925q139.47,151.485,285.5,297.5,937,.75,1874,.5-.255-1343,.5-2686,128.64-1.5,257.5-1v2941q-1157,.255-2314-.5Q2745.765,4587.05,2285,3893.5a4966.343,4966.343,0,0,1-270-462,2857.03,2857.03,0,0,1-170-408,1610.209,1610.209,0,0,1-74-365q-1.185-20-2-40Q1768.25,2429,1768.5,2239.5Z" fill="#fefefe" fill-rule="evenodd"/><path d="M2136.5,2239.5h317q-.255,170,.5,340a812.518,812.518,0,0,0,20,127,1967.582,1967.582,0,0,0,78,242,3303.316,3303.316,0,0,0,236,483,4608.615,4608.615,0,0,0,307,454q185.73,241.8,394,466,69.195,73.71,139.5,146.5,669,.75,1338,.5v-2259h275v2535q-829.5.255-1659-.5Q3048.365,4234.345,2622,3611.5q-128.01-187.95-241-386-77.475-137.955-144-282-24.24-53.985-46-109a968.2,968.2,0,0,1-56-288q-2.775-43.95-2.5-88Q2134.825,2349,2136.5,2239.5Z" fill="#fefefe" fill-rule="evenodd"/></g></svg>